<mxfile host="app.diagrams.net" agent="Mozilla/5.0 (Windows NT 10.0; Win64; x64) AppleWebKit/537.36 (KHTML, like Gecko) Chrome/129.0.0.0 Safari/537.36" version="24.7.17">
  <diagram id="C5RBs43oDa-KdzZeNtuy" name="Page-1">
    <mxGraphModel grid="1" page="1" gridSize="10" guides="1" tooltips="1" connect="1" arrows="1" fold="1" pageScale="1" pageWidth="827" pageHeight="1169" math="0" shadow="0">
      <root>
        <mxCell id="WIyWlLk6GJQsqaUBKTNV-0" />
        <mxCell id="WIyWlLk6GJQsqaUBKTNV-1" parent="WIyWlLk6GJQsqaUBKTNV-0" />
        <mxCell id="vMfzqwyPh-1mYFEFw2cy-3" style="edgeStyle=orthogonalEdgeStyle;rounded=0;orthogonalLoop=1;jettySize=auto;html=1;exitX=0.5;exitY=1;exitDx=0;exitDy=0;entryX=0.5;entryY=0;entryDx=0;entryDy=0;" edge="1" parent="WIyWlLk6GJQsqaUBKTNV-1" source="vMfzqwyPh-1mYFEFw2cy-0" target="vMfzqwyPh-1mYFEFw2cy-2">
          <mxGeometry relative="1" as="geometry" />
        </mxCell>
        <mxCell id="vMfzqwyPh-1mYFEFw2cy-0" value="Start" style="ellipse;whiteSpace=wrap;html=1;" vertex="1" parent="WIyWlLk6GJQsqaUBKTNV-1">
          <mxGeometry x="100" y="110" width="120" height="80" as="geometry" />
        </mxCell>
        <mxCell id="vMfzqwyPh-1mYFEFw2cy-1" value="Task-1" style="text;html=1;align=center;verticalAlign=middle;resizable=0;points=[];autosize=1;strokeColor=none;fillColor=none;" vertex="1" parent="WIyWlLk6GJQsqaUBKTNV-1">
          <mxGeometry x="130" y="50" width="60" height="30" as="geometry" />
        </mxCell>
        <mxCell id="vMfzqwyPh-1mYFEFw2cy-5" style="edgeStyle=orthogonalEdgeStyle;rounded=0;orthogonalLoop=1;jettySize=auto;html=1;exitX=0.5;exitY=1;exitDx=0;exitDy=0;entryX=0.5;entryY=0;entryDx=0;entryDy=0;" edge="1" parent="WIyWlLk6GJQsqaUBKTNV-1" source="vMfzqwyPh-1mYFEFw2cy-2" target="vMfzqwyPh-1mYFEFw2cy-4">
          <mxGeometry relative="1" as="geometry" />
        </mxCell>
        <mxCell id="vMfzqwyPh-1mYFEFw2cy-2" value="int number&lt;div&gt;int maxDigit&lt;/div&gt;" style="shape=parallelogram;perimeter=parallelogramPerimeter;whiteSpace=wrap;html=1;fixedSize=1;" vertex="1" parent="WIyWlLk6GJQsqaUBKTNV-1">
          <mxGeometry x="100" y="230" width="120" height="60" as="geometry" />
        </mxCell>
        <mxCell id="vMfzqwyPh-1mYFEFw2cy-7" style="edgeStyle=orthogonalEdgeStyle;rounded=0;orthogonalLoop=1;jettySize=auto;html=1;exitX=0.5;exitY=1;exitDx=0;exitDy=0;" edge="1" parent="WIyWlLk6GJQsqaUBKTNV-1" source="vMfzqwyPh-1mYFEFw2cy-4" target="vMfzqwyPh-1mYFEFw2cy-6">
          <mxGeometry relative="1" as="geometry" />
        </mxCell>
        <mxCell id="vMfzqwyPh-1mYFEFw2cy-31" value="True" style="edgeLabel;html=1;align=center;verticalAlign=middle;resizable=0;points=[];" connectable="0" vertex="1" parent="vMfzqwyPh-1mYFEFw2cy-7">
          <mxGeometry x="-0.5" y="1" relative="1" as="geometry">
            <mxPoint as="offset" />
          </mxGeometry>
        </mxCell>
        <mxCell id="vMfzqwyPh-1mYFEFw2cy-35" style="edgeStyle=orthogonalEdgeStyle;rounded=0;orthogonalLoop=1;jettySize=auto;html=1;exitX=1;exitY=0.5;exitDx=0;exitDy=0;" edge="1" parent="WIyWlLk6GJQsqaUBKTNV-1" source="vMfzqwyPh-1mYFEFw2cy-4">
          <mxGeometry relative="1" as="geometry">
            <mxPoint x="280" y="360" as="targetPoint" />
          </mxGeometry>
        </mxCell>
        <mxCell id="vMfzqwyPh-1mYFEFw2cy-36" value="False" style="edgeLabel;html=1;align=center;verticalAlign=middle;resizable=0;points=[];" connectable="0" vertex="1" parent="vMfzqwyPh-1mYFEFw2cy-35">
          <mxGeometry x="-0.1553" y="1" relative="1" as="geometry">
            <mxPoint as="offset" />
          </mxGeometry>
        </mxCell>
        <mxCell id="vMfzqwyPh-1mYFEFw2cy-4" value="number &amp;gt; 0" style="rhombus;whiteSpace=wrap;html=1;" vertex="1" parent="WIyWlLk6GJQsqaUBKTNV-1">
          <mxGeometry x="120" y="320" width="80" height="80" as="geometry" />
        </mxCell>
        <mxCell id="vMfzqwyPh-1mYFEFw2cy-15" style="edgeStyle=orthogonalEdgeStyle;rounded=0;orthogonalLoop=1;jettySize=auto;html=1;exitX=0.5;exitY=1;exitDx=0;exitDy=0;entryX=0.5;entryY=0;entryDx=0;entryDy=0;" edge="1" parent="WIyWlLk6GJQsqaUBKTNV-1" source="vMfzqwyPh-1mYFEFw2cy-6" target="vMfzqwyPh-1mYFEFw2cy-8">
          <mxGeometry relative="1" as="geometry" />
        </mxCell>
        <mxCell id="vMfzqwyPh-1mYFEFw2cy-6" value="int digit1 = number % 10" style="rounded=0;whiteSpace=wrap;html=1;" vertex="1" parent="WIyWlLk6GJQsqaUBKTNV-1">
          <mxGeometry x="90" y="440" width="140" height="60" as="geometry" />
        </mxCell>
        <mxCell id="vMfzqwyPh-1mYFEFw2cy-26" style="edgeStyle=orthogonalEdgeStyle;rounded=0;orthogonalLoop=1;jettySize=auto;html=1;exitX=1;exitY=0.5;exitDx=0;exitDy=0;" edge="1" parent="WIyWlLk6GJQsqaUBKTNV-1" source="vMfzqwyPh-1mYFEFw2cy-8" target="vMfzqwyPh-1mYFEFw2cy-10">
          <mxGeometry relative="1" as="geometry" />
        </mxCell>
        <mxCell id="vMfzqwyPh-1mYFEFw2cy-27" value="True" style="edgeLabel;html=1;align=center;verticalAlign=middle;resizable=0;points=[];" connectable="0" vertex="1" parent="vMfzqwyPh-1mYFEFw2cy-26">
          <mxGeometry x="-0.0159" y="2" relative="1" as="geometry">
            <mxPoint as="offset" />
          </mxGeometry>
        </mxCell>
        <mxCell id="vMfzqwyPh-1mYFEFw2cy-32" style="edgeStyle=orthogonalEdgeStyle;rounded=0;orthogonalLoop=1;jettySize=auto;html=1;exitX=0.5;exitY=1;exitDx=0;exitDy=0;entryX=0.5;entryY=0;entryDx=0;entryDy=0;" edge="1" parent="WIyWlLk6GJQsqaUBKTNV-1" source="vMfzqwyPh-1mYFEFw2cy-8" target="vMfzqwyPh-1mYFEFw2cy-17">
          <mxGeometry relative="1" as="geometry" />
        </mxCell>
        <mxCell id="vMfzqwyPh-1mYFEFw2cy-33" value="False" style="edgeLabel;html=1;align=center;verticalAlign=middle;resizable=0;points=[];" connectable="0" vertex="1" parent="vMfzqwyPh-1mYFEFw2cy-32">
          <mxGeometry x="-0.2516" y="-3" relative="1" as="geometry">
            <mxPoint as="offset" />
          </mxGeometry>
        </mxCell>
        <mxCell id="vMfzqwyPh-1mYFEFw2cy-8" value="digit1 &amp;gt; maxdigit" style="rhombus;whiteSpace=wrap;html=1;" vertex="1" parent="WIyWlLk6GJQsqaUBKTNV-1">
          <mxGeometry x="95" y="555" width="130" height="110" as="geometry" />
        </mxCell>
        <mxCell id="vMfzqwyPh-1mYFEFw2cy-34" style="edgeStyle=orthogonalEdgeStyle;rounded=0;orthogonalLoop=1;jettySize=auto;html=1;exitX=0.5;exitY=1;exitDx=0;exitDy=0;entryX=1;entryY=0.5;entryDx=0;entryDy=0;" edge="1" parent="WIyWlLk6GJQsqaUBKTNV-1" source="vMfzqwyPh-1mYFEFw2cy-10" target="vMfzqwyPh-1mYFEFw2cy-17">
          <mxGeometry relative="1" as="geometry" />
        </mxCell>
        <mxCell id="vMfzqwyPh-1mYFEFw2cy-10" value="maxDigit = digit1" style="rounded=0;whiteSpace=wrap;html=1;" vertex="1" parent="WIyWlLk6GJQsqaUBKTNV-1">
          <mxGeometry x="354" y="580" width="120" height="60" as="geometry" />
        </mxCell>
        <mxCell id="vMfzqwyPh-1mYFEFw2cy-23" style="edgeStyle=orthogonalEdgeStyle;rounded=0;orthogonalLoop=1;jettySize=auto;html=1;exitX=0;exitY=0.5;exitDx=0;exitDy=0;entryX=0;entryY=0.5;entryDx=0;entryDy=0;" edge="1" parent="WIyWlLk6GJQsqaUBKTNV-1" source="vMfzqwyPh-1mYFEFw2cy-17" target="vMfzqwyPh-1mYFEFw2cy-4">
          <mxGeometry relative="1" as="geometry">
            <mxPoint x="90" y="470" as="targetPoint" />
          </mxGeometry>
        </mxCell>
        <mxCell id="vMfzqwyPh-1mYFEFw2cy-17" value="number/=10" style="rounded=0;whiteSpace=wrap;html=1;" vertex="1" parent="WIyWlLk6GJQsqaUBKTNV-1">
          <mxGeometry x="100" y="820" width="120" height="60" as="geometry" />
        </mxCell>
        <mxCell id="vMfzqwyPh-1mYFEFw2cy-37" style="edgeStyle=orthogonalEdgeStyle;rounded=0;orthogonalLoop=1;jettySize=auto;html=1;exitX=1;exitY=0.5;exitDx=0;exitDy=0;" edge="1" parent="WIyWlLk6GJQsqaUBKTNV-1" source="vMfzqwyPh-1mYFEFw2cy-29">
          <mxGeometry relative="1" as="geometry">
            <mxPoint x="450" y="360" as="targetPoint" />
          </mxGeometry>
        </mxCell>
        <mxCell id="vMfzqwyPh-1mYFEFw2cy-29" value="maxDigit" style="shape=document;whiteSpace=wrap;html=1;boundedLbl=1;" vertex="1" parent="WIyWlLk6GJQsqaUBKTNV-1">
          <mxGeometry x="280" y="320" width="120" height="80" as="geometry" />
        </mxCell>
        <mxCell id="vMfzqwyPh-1mYFEFw2cy-38" value="End" style="ellipse;whiteSpace=wrap;html=1;" vertex="1" parent="WIyWlLk6GJQsqaUBKTNV-1">
          <mxGeometry x="450" y="320" width="120" height="80" as="geometry" />
        </mxCell>
        <mxCell id="vMfzqwyPh-1mYFEFw2cy-39" value="Task-2" style="text;html=1;align=center;verticalAlign=middle;resizable=0;points=[];autosize=1;strokeColor=none;fillColor=none;" vertex="1" parent="WIyWlLk6GJQsqaUBKTNV-1">
          <mxGeometry x="1030" y="50" width="60" height="30" as="geometry" />
        </mxCell>
        <mxCell id="vMfzqwyPh-1mYFEFw2cy-44" style="edgeStyle=orthogonalEdgeStyle;rounded=0;orthogonalLoop=1;jettySize=auto;html=1;exitX=0.5;exitY=1;exitDx=0;exitDy=0;" edge="1" parent="WIyWlLk6GJQsqaUBKTNV-1" source="vMfzqwyPh-1mYFEFw2cy-40" target="vMfzqwyPh-1mYFEFw2cy-41">
          <mxGeometry relative="1" as="geometry" />
        </mxCell>
        <mxCell id="vMfzqwyPh-1mYFEFw2cy-40" value="Start" style="ellipse;whiteSpace=wrap;html=1;" vertex="1" parent="WIyWlLk6GJQsqaUBKTNV-1">
          <mxGeometry x="1020" y="110" width="120" height="80" as="geometry" />
        </mxCell>
        <mxCell id="vMfzqwyPh-1mYFEFw2cy-45" style="edgeStyle=orthogonalEdgeStyle;rounded=0;orthogonalLoop=1;jettySize=auto;html=1;exitX=0.5;exitY=1;exitDx=0;exitDy=0;entryX=0.5;entryY=0;entryDx=0;entryDy=0;" edge="1" parent="WIyWlLk6GJQsqaUBKTNV-1" source="vMfzqwyPh-1mYFEFw2cy-41" target="vMfzqwyPh-1mYFEFw2cy-42">
          <mxGeometry relative="1" as="geometry" />
        </mxCell>
        <mxCell id="vMfzqwyPh-1mYFEFw2cy-41" value="int number" style="rounded=0;whiteSpace=wrap;html=1;" vertex="1" parent="WIyWlLk6GJQsqaUBKTNV-1">
          <mxGeometry x="1020" y="260" width="120" height="60" as="geometry" />
        </mxCell>
        <mxCell id="vMfzqwyPh-1mYFEFw2cy-47" style="edgeStyle=orthogonalEdgeStyle;rounded=0;orthogonalLoop=1;jettySize=auto;html=1;exitX=1;exitY=0.5;exitDx=0;exitDy=0;" edge="1" parent="WIyWlLk6GJQsqaUBKTNV-1" source="vMfzqwyPh-1mYFEFw2cy-42" target="vMfzqwyPh-1mYFEFw2cy-46">
          <mxGeometry relative="1" as="geometry" />
        </mxCell>
        <mxCell id="vMfzqwyPh-1mYFEFw2cy-48" value="True" style="edgeLabel;html=1;align=center;verticalAlign=middle;resizable=0;points=[];" connectable="0" vertex="1" parent="vMfzqwyPh-1mYFEFw2cy-47">
          <mxGeometry x="-0.0481" y="-1" relative="1" as="geometry">
            <mxPoint as="offset" />
          </mxGeometry>
        </mxCell>
        <mxCell id="vMfzqwyPh-1mYFEFw2cy-49" style="edgeStyle=orthogonalEdgeStyle;rounded=0;orthogonalLoop=1;jettySize=auto;html=1;exitX=0.5;exitY=1;exitDx=0;exitDy=0;" edge="1" parent="WIyWlLk6GJQsqaUBKTNV-1" source="vMfzqwyPh-1mYFEFw2cy-42">
          <mxGeometry relative="1" as="geometry">
            <mxPoint x="1080.217391304348" y="510" as="targetPoint" />
          </mxGeometry>
        </mxCell>
        <mxCell id="vMfzqwyPh-1mYFEFw2cy-50" style="edgeStyle=orthogonalEdgeStyle;rounded=0;orthogonalLoop=1;jettySize=auto;html=1;exitX=0;exitY=0.5;exitDx=0;exitDy=0;" edge="1" parent="WIyWlLk6GJQsqaUBKTNV-1" source="vMfzqwyPh-1mYFEFw2cy-42">
          <mxGeometry relative="1" as="geometry">
            <mxPoint x="900" y="410.08695652173924" as="targetPoint" />
          </mxGeometry>
        </mxCell>
        <mxCell id="vMfzqwyPh-1mYFEFw2cy-52" value="False" style="edgeLabel;html=1;align=center;verticalAlign=middle;resizable=0;points=[];" connectable="0" vertex="1" parent="vMfzqwyPh-1mYFEFw2cy-50">
          <mxGeometry x="-0.1976" y="-3" relative="1" as="geometry">
            <mxPoint as="offset" />
          </mxGeometry>
        </mxCell>
        <mxCell id="vMfzqwyPh-1mYFEFw2cy-42" value="number%2==0 &amp;amp;&amp;amp; number==2" style="rhombus;whiteSpace=wrap;html=1;" vertex="1" parent="WIyWlLk6GJQsqaUBKTNV-1">
          <mxGeometry x="985" y="370" width="190" height="80" as="geometry" />
        </mxCell>
        <mxCell id="vMfzqwyPh-1mYFEFw2cy-56" style="edgeStyle=orthogonalEdgeStyle;rounded=0;orthogonalLoop=1;jettySize=auto;html=1;exitX=0.527;exitY=0.882;exitDx=0;exitDy=0;exitPerimeter=0;entryX=1;entryY=0.5;entryDx=0;entryDy=0;" edge="1" parent="WIyWlLk6GJQsqaUBKTNV-1" source="vMfzqwyPh-1mYFEFw2cy-46" target="vMfzqwyPh-1mYFEFw2cy-53">
          <mxGeometry relative="1" as="geometry">
            <mxPoint x="1150.0000000000002" y="560" as="targetPoint" />
            <Array as="points">
              <mxPoint x="1333" y="550" />
            </Array>
          </mxGeometry>
        </mxCell>
        <mxCell id="vMfzqwyPh-1mYFEFw2cy-46" value="Ədəd sadədir" style="shape=document;whiteSpace=wrap;html=1;boundedLbl=1;" vertex="1" parent="WIyWlLk6GJQsqaUBKTNV-1">
          <mxGeometry x="1270" y="370" width="120" height="80" as="geometry" />
        </mxCell>
        <mxCell id="vMfzqwyPh-1mYFEFw2cy-51" value="Ədəd mürəkkəbdir" style="shape=document;whiteSpace=wrap;html=1;boundedLbl=1;" vertex="1" parent="WIyWlLk6GJQsqaUBKTNV-1">
          <mxGeometry x="780" y="380" width="130" height="80" as="geometry" />
        </mxCell>
        <mxCell id="vMfzqwyPh-1mYFEFw2cy-53" value="End" style="ellipse;whiteSpace=wrap;html=1;" vertex="1" parent="WIyWlLk6GJQsqaUBKTNV-1">
          <mxGeometry x="1020" y="510" width="120" height="80" as="geometry" />
        </mxCell>
        <mxCell id="vMfzqwyPh-1mYFEFw2cy-55" style="edgeStyle=orthogonalEdgeStyle;rounded=0;orthogonalLoop=1;jettySize=auto;html=1;entryX=0.002;entryY=0.588;entryDx=0;entryDy=0;entryPerimeter=0;exitX=0.436;exitY=0.887;exitDx=0;exitDy=0;exitPerimeter=0;" edge="1" parent="WIyWlLk6GJQsqaUBKTNV-1" source="vMfzqwyPh-1mYFEFw2cy-51" target="vMfzqwyPh-1mYFEFw2cy-53">
          <mxGeometry relative="1" as="geometry">
            <mxPoint x="910" y="490" as="sourcePoint" />
            <Array as="points">
              <mxPoint x="837" y="557" />
            </Array>
          </mxGeometry>
        </mxCell>
        <mxCell id="vMfzqwyPh-1mYFEFw2cy-57" value="Task-3" style="text;html=1;align=center;verticalAlign=middle;resizable=0;points=[];autosize=1;strokeColor=none;fillColor=none;" vertex="1" parent="WIyWlLk6GJQsqaUBKTNV-1">
          <mxGeometry x="1875" y="40" width="60" height="30" as="geometry" />
        </mxCell>
        <mxCell id="vMfzqwyPh-1mYFEFw2cy-65" style="edgeStyle=orthogonalEdgeStyle;rounded=0;orthogonalLoop=1;jettySize=auto;html=1;exitX=0.5;exitY=1;exitDx=0;exitDy=0;entryX=0.5;entryY=0;entryDx=0;entryDy=0;" edge="1" parent="WIyWlLk6GJQsqaUBKTNV-1" source="vMfzqwyPh-1mYFEFw2cy-58" target="vMfzqwyPh-1mYFEFw2cy-59">
          <mxGeometry relative="1" as="geometry" />
        </mxCell>
        <mxCell id="vMfzqwyPh-1mYFEFw2cy-58" value="Start" style="ellipse;whiteSpace=wrap;html=1;" vertex="1" parent="WIyWlLk6GJQsqaUBKTNV-1">
          <mxGeometry x="1845" y="110" width="120" height="80" as="geometry" />
        </mxCell>
        <mxCell id="vMfzqwyPh-1mYFEFw2cy-66" style="edgeStyle=orthogonalEdgeStyle;rounded=0;orthogonalLoop=1;jettySize=auto;html=1;exitX=0.5;exitY=1;exitDx=0;exitDy=0;entryX=0.5;entryY=0;entryDx=0;entryDy=0;" edge="1" parent="WIyWlLk6GJQsqaUBKTNV-1" source="vMfzqwyPh-1mYFEFw2cy-59" target="vMfzqwyPh-1mYFEFw2cy-60">
          <mxGeometry relative="1" as="geometry" />
        </mxCell>
        <mxCell id="vMfzqwyPh-1mYFEFw2cy-59" value="int number&amp;nbsp;&lt;div&gt;int powerofTwo&lt;/div&gt;" style="rounded=0;whiteSpace=wrap;html=1;" vertex="1" parent="WIyWlLk6GJQsqaUBKTNV-1">
          <mxGeometry x="1845" y="240" width="120" height="60" as="geometry" />
        </mxCell>
        <mxCell id="vMfzqwyPh-1mYFEFw2cy-71" style="edgeStyle=orthogonalEdgeStyle;rounded=0;orthogonalLoop=1;jettySize=auto;html=1;exitX=0.5;exitY=1;exitDx=0;exitDy=0;" edge="1" parent="WIyWlLk6GJQsqaUBKTNV-1" source="vMfzqwyPh-1mYFEFw2cy-60" target="vMfzqwyPh-1mYFEFw2cy-61">
          <mxGeometry relative="1" as="geometry" />
        </mxCell>
        <mxCell id="vMfzqwyPh-1mYFEFw2cy-72" value="True" style="edgeLabel;html=1;align=center;verticalAlign=middle;resizable=0;points=[];" connectable="0" vertex="1" parent="vMfzqwyPh-1mYFEFw2cy-71">
          <mxGeometry x="-0.16" y="3" relative="1" as="geometry">
            <mxPoint as="offset" />
          </mxGeometry>
        </mxCell>
        <mxCell id="vMfzqwyPh-1mYFEFw2cy-75" style="edgeStyle=orthogonalEdgeStyle;rounded=0;orthogonalLoop=1;jettySize=auto;html=1;exitX=0;exitY=0.5;exitDx=0;exitDy=0;entryX=0;entryY=0.5;entryDx=0;entryDy=0;" edge="1" parent="WIyWlLk6GJQsqaUBKTNV-1" source="vMfzqwyPh-1mYFEFw2cy-60" target="vMfzqwyPh-1mYFEFw2cy-62">
          <mxGeometry relative="1" as="geometry" />
        </mxCell>
        <mxCell id="vMfzqwyPh-1mYFEFw2cy-76" value="False" style="edgeLabel;html=1;align=center;verticalAlign=middle;resizable=0;points=[];" connectable="0" vertex="1" parent="vMfzqwyPh-1mYFEFw2cy-75">
          <mxGeometry x="-0.7173" y="-3" relative="1" as="geometry">
            <mxPoint as="offset" />
          </mxGeometry>
        </mxCell>
        <mxCell id="vMfzqwyPh-1mYFEFw2cy-60" value="powerofTwo &amp;lt; number" style="rhombus;whiteSpace=wrap;html=1;" vertex="1" parent="WIyWlLk6GJQsqaUBKTNV-1">
          <mxGeometry x="1830" y="330" width="150" height="80" as="geometry" />
        </mxCell>
        <mxCell id="vMfzqwyPh-1mYFEFw2cy-73" style="edgeStyle=orthogonalEdgeStyle;rounded=0;orthogonalLoop=1;jettySize=auto;html=1;exitX=1;exitY=0.5;exitDx=0;exitDy=0;entryX=1;entryY=0.5;entryDx=0;entryDy=0;" edge="1" parent="WIyWlLk6GJQsqaUBKTNV-1" source="vMfzqwyPh-1mYFEFw2cy-61" target="vMfzqwyPh-1mYFEFw2cy-60">
          <mxGeometry relative="1" as="geometry">
            <Array as="points">
              <mxPoint x="2020" y="490" />
              <mxPoint x="2020" y="370" />
            </Array>
          </mxGeometry>
        </mxCell>
        <mxCell id="vMfzqwyPh-1mYFEFw2cy-74" style="edgeStyle=orthogonalEdgeStyle;rounded=0;orthogonalLoop=1;jettySize=auto;html=1;exitX=0.5;exitY=1;exitDx=0;exitDy=0;" edge="1" parent="WIyWlLk6GJQsqaUBKTNV-1" source="vMfzqwyPh-1mYFEFw2cy-61" target="vMfzqwyPh-1mYFEFw2cy-62">
          <mxGeometry relative="1" as="geometry" />
        </mxCell>
        <mxCell id="vMfzqwyPh-1mYFEFw2cy-61" value="&amp;nbsp;powerofTwo *= 2" style="rounded=0;whiteSpace=wrap;html=1;" vertex="1" parent="WIyWlLk6GJQsqaUBKTNV-1">
          <mxGeometry x="1845" y="450" width="120" height="60" as="geometry" />
        </mxCell>
        <mxCell id="vMfzqwyPh-1mYFEFw2cy-78" style="edgeStyle=orthogonalEdgeStyle;rounded=0;orthogonalLoop=1;jettySize=auto;html=1;entryX=0;entryY=0.5;entryDx=0;entryDy=0;" edge="1" parent="WIyWlLk6GJQsqaUBKTNV-1" source="vMfzqwyPh-1mYFEFw2cy-62" target="vMfzqwyPh-1mYFEFw2cy-64">
          <mxGeometry relative="1" as="geometry" />
        </mxCell>
        <mxCell id="vMfzqwyPh-1mYFEFw2cy-80" value="True" style="edgeLabel;html=1;align=center;verticalAlign=middle;resizable=0;points=[];" connectable="0" vertex="1" parent="vMfzqwyPh-1mYFEFw2cy-78">
          <mxGeometry x="-0.1132" y="-1" relative="1" as="geometry">
            <mxPoint as="offset" />
          </mxGeometry>
        </mxCell>
        <mxCell id="vMfzqwyPh-1mYFEFw2cy-79" style="edgeStyle=orthogonalEdgeStyle;rounded=0;orthogonalLoop=1;jettySize=auto;html=1;exitX=0.5;exitY=1;exitDx=0;exitDy=0;" edge="1" parent="WIyWlLk6GJQsqaUBKTNV-1" source="vMfzqwyPh-1mYFEFw2cy-62" target="vMfzqwyPh-1mYFEFw2cy-63">
          <mxGeometry relative="1" as="geometry" />
        </mxCell>
        <mxCell id="vMfzqwyPh-1mYFEFw2cy-81" value="False" style="edgeLabel;html=1;align=center;verticalAlign=middle;resizable=0;points=[];" connectable="0" vertex="1" parent="vMfzqwyPh-1mYFEFw2cy-79">
          <mxGeometry x="-0.36" y="-2" relative="1" as="geometry">
            <mxPoint as="offset" />
          </mxGeometry>
        </mxCell>
        <mxCell id="vMfzqwyPh-1mYFEFw2cy-62" value="powerofTwo == number &amp;amp;&amp;amp; powerofTwo != 1" style="rhombus;whiteSpace=wrap;html=1;" vertex="1" parent="WIyWlLk6GJQsqaUBKTNV-1">
          <mxGeometry x="1654" y="570" width="280" height="130" as="geometry" />
        </mxCell>
        <mxCell id="vMfzqwyPh-1mYFEFw2cy-63" value="Qüvvəti deyil" style="shape=document;whiteSpace=wrap;html=1;boundedLbl=1;" vertex="1" parent="WIyWlLk6GJQsqaUBKTNV-1">
          <mxGeometry x="1734" y="750" width="120" height="80" as="geometry" />
        </mxCell>
        <mxCell id="vMfzqwyPh-1mYFEFw2cy-64" value="Qüvvətidir" style="shape=document;whiteSpace=wrap;html=1;boundedLbl=1;" vertex="1" parent="WIyWlLk6GJQsqaUBKTNV-1">
          <mxGeometry x="2040" y="595" width="120" height="80" as="geometry" />
        </mxCell>
      </root>
    </mxGraphModel>
  </diagram>
</mxfile>
